# xmcd CD database file
#
# Track frame offsets:
#	150
#	10890
#	27155
#	43703
#	58932
#	74489
#	89141
#	112151
#	124834
#	140872
#	159564
#	176928
#	194938
#	206930
#
# Disc length: 2920 seconds
#
# Revision: 0
# Processed by: cddbd v1.5.2PL0 Copyright (c) Steve Scherf et al.
# Submitted via: CDex 1.70beta2
#
DISCID=ec0b660e
DTITLE=TRI4TH - わらべJAZZ
DYEAR=2011
DGENRE=Jazz
TTITLE0=幸せなら手をたたこう
TTITLE1=ドレミのうた
TTITLE2=どんぐりころころ
TTITLE3=さくらさくら
TTITLE4=ぶんぶんぶん
TTITLE5=うみ
TTITLE6=かえるのうた
TTITLE7=犬のおまわりさん
TTITLE8=七夕さま
TTITLE9=村祭
TTITLE10=大きな古時計
TTITLE11=きらきら星
TTITLE12=大きな栗の木の下で
TTITLE13=聖者の行進
EXTD=YEAR: 2011
EXTT0=
EXTT1=
EXTT2=
EXTT3=
EXTT4=
EXTT5=
EXTT6=
EXTT7=
EXTT8=
EXTT9=
EXTT10=
EXTT11=
EXTT12=
EXTT13=
PLAYORDER=
